<?xml version="1.0" encoding="UTF-8"?>
<svg id="_レイヤー_1" data-name="レイヤー_1" xmlns="http://www.w3.org/2000/svg" xmlns:xlink="http://www.w3.org/1999/xlink" viewBox="0 0 196.39 226.77">
  <defs>
    <style>
      .cls-1, .cls-2, .cls-3 {
        fill: none;
      }

      .cls-4 {
        fill: #fa0;
      }

      .cls-2 {
        stroke: #f1ec63;
        stroke-width: 14px;
      }

      .cls-2, .cls-3 {
        stroke-miterlimit: 10;
      }

      .cls-5 {
        fill: #f1ec63;
      }

      .cls-6 {
        clip-path: url(#clippath-1);
      }

      .cls-7 {
        fill: #00a;
      }

      .cls-8 {
        fill: #0aa;
      }

      .cls-9 {
        fill: #55f;
      }

      .cls-3 {
        stroke: #5ff;
        stroke-width: 4px;
      }

      .cls-10 {
        fill: #0a0;
      }

      .cls-11 {
        clip-path: url(#clippath);
      }
    </style>
    <clipPath id="clippath">
      <polygon class="cls-1" points="98.2 28.37 196.31 85.02 196.39 85.02 196.39 56.69 98.2 0 0 56.69 0 85.02 .08 85.02 98.2 28.37"/>
    </clipPath>
    <clipPath id="clippath-1">
      <polygon class="cls-1" points="98.2 198.4 .08 141.76 0 141.76 0 170.08 98.19 226.77 196.39 170.08 196.39 141.76 196.31 141.76 98.2 198.4"/>
    </clipPath>
  </defs>
  <g class="cls-11">
    <rect class="cls-10" x="0" y="0" width="196.39" height="85.02"/>
  </g>
  <g class="cls-6">
    <rect class="cls-4" x="0" y="141.76" width="196.39" height="85.02" transform="translate(196.39 368.53) rotate(-180)"/>
  </g>
  <g>
    <polygon class="cls-5" points="156.18 92.7 156.18 134.07 196.39 113.39 156.18 92.7"/>
    <line class="cls-2" x1="0" y1="113.39" x2="156.18" y2="113.39"/>
  </g>
  <g>
    <polygon class="cls-8" points="98.2 70.87 135.02 92.13 98.2 113.39 61.37 92.13 98.2 70.87"/>
    <polygon class="cls-7" points="135.02 134.65 98.2 155.91 98.2 113.39 135.02 92.13 135.02 134.65"/>
    <polygon class="cls-9" points="61.37 134.65 61.37 92.13 98.2 113.39 98.2 155.91 61.37 134.65"/>
    <polygon class="cls-3" points="135.02 134.65 135.02 92.13 98.2 70.87 61.37 92.13 61.37 134.65 98.2 155.91 135.02 134.65"/>
  </g>
</svg>